<?xml version="1.0" ?><!DOCTYPE svg  PUBLIC '-//W3C//DTD SVG 1.1//EN'  'http://www.w3.org/Graphics/SVG/1.1/DTD/svg11.dtd'><svg enable-background="new 0 0 90 90" height="90px" id="Layer_1" version="1.1" viewBox="0 0 90 90" width="90px" xml:space="preserve" xmlns="http://www.w3.org/2000/svg" xmlns:xlink="http://www.w3.org/1999/xlink"><path clip-rule="evenodd" d="M35.736,51.714c0.492-8.802-13.719-8.908-24.195-3.311  C22.827,2.392,102.658,29.099,81.426,90H5C20.873,80.655,34.818,67.983,35.736,51.714z M56.647,58.226  c4.173-1.209-1.609-11.419,2.512-12.812c5.172-1.756,7.405,13.385,12.271,10.887c4.585-2.326,3.83-9.705-1.529-15.355  c-14.835-15.646-43.457-18.518-52.617,1.98c14.052-5.742,25.113,2.446,21.39,10.648c-0.16,0.346-0.08,1.449,0.465,1.61  c3.39,1.077,4.759-6.954,8.31-6.702C51.915,48.774,52.354,59.462,56.647,58.226z" fill-rule="evenodd"/></svg>